<svg height="448pt" viewBox="-32 0 448 448" width="448pt" xmlns="http://www.w3.org/2000/svg"><path d="m136 416v-144h-64v144zm-24-88h16v16h-16zm0 0"/><path d="m384 112h-64v56c0 13.253906 10.746094 24 24 24h16c13.253906 0 24-10.746094 24-24zm0 0"/><path d="m200 272h48v64h-48zm0 0"/><path d="m360 416v-208h-16c-12.640625-.035156-24.511719-6.0625-32-16.246094-7.488281 10.183594-19.359375 16.210938-32 16.246094h-16c-12.640625-.035156-24.511719-6.0625-32-16.246094-7.488281 10.183594-19.359375 16.210938-32 16.246094h-16c-12.640625-.035156-24.511719-6.0625-32-16.246094-7.488281 10.183594-19.359375 16.210938-32 16.246094h-16c-12.640625-.035156-24.511719-6.0625-32-16.246094-7.488281 10.183594-19.359375 16.210938-32 16.246094h-16v208h32v-152c0-4.417969 3.582031-8 8-8h80c4.417969 0 8 3.582031 8 8v152zm-176-152c0-4.417969 3.582031-8 8-8h128c4.417969 0 8 3.582031 8 8v80c0 4.417969-3.582031 8-8 8h-128c-4.417969 0-8-3.582031-8-8zm0 0"/><path d="m120 192c13.253906 0 24-10.746094 24-24v-56h-64v56c0 13.253906 10.746094 24 24 24zm0 0"/><path d="m0 168c0 13.253906 10.746094 24 24 24h16c13.253906 0 24-10.746094 24-24v-56h-64zm0 0"/><path d="m200 192c13.253906 0 24-10.746094 24-24v-56h-64v56c0 13.253906 10.746094 24 24 24zm0 0"/><path d="m264 272h48v64h-48zm0 0"/><path d="m0 432h384v16h-384zm0 0"/><path d="m24 0h336v96h-336zm0 0"/><path d="m280 192c13.253906 0 24-10.746094 24-24v-56h-64v56c0 13.253906 10.746094 24 24 24zm0 0"/></svg>